PathFileType	4	(x/y/z)	S08_P20_T14
DataRate	CameraRate	NumFrames	NumMarkers	Units	OrigDataRate	OrigDataStartFrame	OrigNumFrames
240	240	5	51	mm	240	345	394
Frame#	Time	Sternum			R.Acromium			L.Acromium			Top.Head			R.ASIS			L.ASIS			R.PSIS			L.PSIS			R.Great.Tro			L.Great.Tro			R.Iliac.Crest			L.Iliac.Crest			V.Sacral			R.Thigh.Upper.Post			R.Thigh.Lower.Ant			R.Thigh.Lower.Post			R.Thigh.Upper.Ant			R.Knee.Lat			R.Knee.Med			R.Shank.Upper.Post			R.Shank.Lower.Ant			R.Shank.Lower.Post			R.Shank.Upper.Ant			R.Ankle.Lat			R.Ankle.Med			R.Heel.Upper			R.Heel.Med			R.Heel.Lat			R.Toe.Lat			R.Toe.Med			R.Toe.Tip			L.Thigh.Upper.Post			L.Thigh.Lower.Ant			L.Thigh.Lower.Post			L.Thigh.Upper.Ant			L.Knee.Lat			L.Knee.Med			L.Shank.Upper.Post			L.Shank.Lower.Ant			L.Shank.Lower.Post			L.Shank.Upper.Ant			L.Ankle.Lat			L.Ankle.Med			L.Heel.Upper			L.Heel.Med			L.Heel.Lat			L.Toe.Lat			L.Toe.Med			L.Toe.Tip			Cervical.Spine			Back			
		X1	Y1	Z1	X2	Y2	Z2	X3	Y3	Z3	X4	Y4	Z4	X5	Y5	Z5	X6	Y6	Z6	X7	Y7	Z7	X8	Y8	Z8	X9	Y9	Z9	X10	Y10	Z10	X11	Y11	Z11	X12	Y12	Z12	X13	Y13	Z13	X14	Y14	Z14	X15	Y15	Z15	X16	Y16	Z16	X17	Y17	Z17	X18	Y18	Z18	X19	Y19	Z19	X20	Y20	Z20	X21	Y21	Z21	X22	Y22	Z22	X23	Y23	Z23	X24	Y24	Z24	X25	Y25	Z25	X26	Y26	Z26	X27	Y27	Z27	X28	Y28	Z28	X29	Y29	Z29	X30	Y30	Z30	X31	Y31	Z31	X32	Y32	Z32	X33	Y33	Z33	X34	Y34	Z34	X35	Y35	Z35	X36	Y36	Z36	X37	Y37	Z37	X38	Y38	Z38	X39	Y39	Z39	X40	Y40	Z40	X41	Y41	Z41	X42	Y42	Z42	X43	Y43	Z43	X44	Y44	Z44	X45	Y45	Z45	X46	Y46	Z46	X47	Y47	Z47	X48	Y48	Z48	X49	Y49	Z49	X50	Y50	Z50	X51	Y51	Z51	

345	1.4333	480.71	1212.5	294.58	354.34	1446.8	468.9	351.54	1478.1	132.9	357.65	1768.7	324.05	445.43	1003	402	450.22	999.09	169.93	244.76	1021.8	326.24	251.95	1026.6	233.32	390.78	894.95	473.92	350.58	897.46	102.96	346.51	1068.5	447.11	360.35	1083.3	141.3	233.11	983.52	277.42	437.38	694.04	454.48	544.03	629.87	421.06	474.33	613.94	431.66	512.76	716.82	445.95	545.52	532.09	411.85	516.01	525.92	287.04	525.61	339.05	418.9	598.83	291.75	394.85	542.28	263.62	410.26	582.45	367.57	404.72	580.62	100.3	374.64	607.53	123.35	295.33	544.81	59.246	322.17	562.81	35.686	295.8	553.53	36.018	357.33	NaN	NaN	NaN	741.82	80.803	290.2	797.93	112.7	338.37	291.39	703.73	121.12	356.23	598.1	147.49	289.18	611.89	143.71	358.61	684.66	123.84	274.66	510.28	163.54	285.31	507.48	288.45	149.08	363.68	164.56	178.04	257.35	184.42	118.61	297.71	181.06	203.84	327.74	168.28	73.315	127.25	197.08	98.436	124.78	281.51	12.352	105.06	245.67	19.738	68.319	275.8	14.808	77.031	211.76	184.43	38.277	175.06	206.93	39.126	289.87	271.52	45.591	240.71	285.14	1505.9	293.91	244.02	1222.1	294.6
346	1.4375	486.31	1212.2	295.22	359.46	1446.3	469.48	356.76	1477.7	133.43	362.85	1768.4	324.45	451.3	1002.6	402.49	456.27	998.74	170.42	250.64	1021.3	326.49	257.93	1026.1	233.58	396.72	894.45	474.27	356.77	896.88	103.36	352.29	1068	447.5	366.32	1082.9	141.61	239.07	982.99	277.65	442.74	693.65	454.42	549.23	629.16	421.04	479.49	613.45	431.58	518.26	716.21	445.98	550.45	531.36	411.78	520.9	525.37	287.04	529.38	338.4	418.78	602.19	290.61	394.6	545.51	262.88	410.16	586.38	366.53	404.48	582.42	99.623	374.54	609.39	122.29	295.2	546.03	59.568	322.09	563.58	35.675	295.72	554.42	36.232	357.27	NaN	NaN	NaN	743.08	78.188	289.69	799.72	109.41	337.77	298.19	702.81	121.84	363.55	597.4	147.82	296.41	610.94	144.38	365.47	684.01	124.36	282.16	509.56	163.89	293.05	506.5	288.65	154.8	364.85	164.65	182.11	258.1	184.26	123.3	299.36	181.02	208.99	328.09	168.23	75.287	129.55	196.73	100.57	126.78	281.05	14.168	108.44	245.38	20.952	71.799	275.65	16.068	80.276	211.56	184.6	38.358	175.1	207.26	39.529	289.87	271.72	45.253	240.75	290.32	1505.5	294.44	249.62	1221.5	295.03
347	1.4417	491.91	1212.1	295.85	364.59	1446	470.07	361.97	1477.3	133.96	368.05	1768.1	324.87	457.18	1002.3	402.99	462.31	998.45	170.92	256.51	1020.9	326.74	263.91	1025.6	233.83	402.68	894.03	474.64	363.01	896.32	103.78	358.08	1067.6	447.9	372.29	1082.6	141.94	245.03	982.52	277.88	448.1	693.34	454.4	554.43	628.51	421.04	484.65	613.02	431.56	523.75	715.67	446.01	555.38	530.69	411.74	525.68	524.85	287.09	533.1	337.83	418.72	605.47	289.53	394.38	548.66	262.22	410.12	590.26	365.55	404.27	584.05	99.008	374.46	611.1	121.29	295.1	547.06	59.933	322.04	564.16	35.715	295.66	555.12	36.483	357.22	NaN	NaN	NaN	744.17	75.589	289.24	801.34	106.11	337.22	305.13	701.84	122.57	371.09	596.71	148.13	303.86	609.96	145.02	372.49	683.38	124.88	289.94	508.83	164.2	301.08	505.5	288.8	160.78	366.1	164.7	186.4	258.93	184.05	128.25	301.11	180.94	214.37	328.5	168.13	77.47	132	196.33	102.91	128.94	280.53	16.221	112.1	245.05	22.356	75.578	275.48	17.516	83.799	211.33	184.81	38.489	175.13	207.63	39.991	289.86	271.92	44.919	240.79	295.5	1505.1	294.98	255.22	1221	295.47
348	1.4458	497.51	1212	296.47	369.74	1445.7	470.66	367.16	1477	134.49	373.24	1767.9	325.29	463.04	1002.2	403.5	468.35	998.23	171.44	262.38	1020.5	327.01	269.88	1025.2	234.09	408.64	893.68	475.02	369.28	895.79	104.22	363.87	1067.3	448.3	378.24	1082.3	142.27	250.98	982.11	278.13	453.45	693.11	454.43	559.62	627.93	421.07	489.8	612.66	431.6	529.25	715.21	446.03	560.29	530.1	411.73	530.35	524.38	287.18	536.78	337.33	418.7	608.69	288.51	394.2	551.75	261.64	410.13	594.09	364.63	404.09	585.53	98.46	374.38	612.67	120.35	295.04	547.95	60.328	322.01	564.6	35.8	295.61	555.67	36.764	357.2	NaN	NaN	NaN	745.11	73.035	288.83	802.81	102.83	336.73	312.22	700.84	123.3	378.86	596.03	148.42	311.53	608.96	145.62	379.68	682.77	125.39	297.99	508.1	164.46	309.38	504.48	288.9	167.05	367.42	164.7	190.93	259.86	183.79	133.47	302.95	180.82	220.01	328.98	167.97	79.884	134.62	195.88	105.49	131.24	279.96	18.533	116.05	244.68	23.971	79.665	275.28	19.173	87.612	211.06	185.04	38.679	175.14	208.04	40.511	289.84	272.1	44.588	240.83	300.68	1504.7	295.54	260.81	1220.5	295.93
349	1.45	503.11	1211.9	297.08	374.91	1445.4	471.25	372.34	1476.8	135.03	378.43	1767.8	325.72	468.89	1002	404.02	474.36	998.06	171.97	268.22	1020.1	327.27	275.83	1024.8	234.36	414.59	893.42	475.42	375.59	895.29	104.67	369.64	1067.1	448.69	384.18	1082	142.6	256.92	981.76	278.38	458.79	692.96	454.52	564.8	627.44	421.11	494.96	612.39	431.7	534.73	714.83	446.06	565.2	529.57	411.75	534.9	523.95	287.31	540.42	336.9	418.74	611.86	287.57	394.05	554.79	261.14	410.19	597.89	363.77	403.94	586.88	97.981	374.3	614.12	119.48	295	548.71	60.744	322	564.92	35.924	295.59	556.09	37.067	357.19	NaN	NaN	NaN	745.92	70.556	288.46	804.14	99.607	336.3	319.46	699.79	124.03	386.86	595.37	148.69	319.43	607.94	146.19	387.05	682.18	125.9	306.33	507.36	164.66	317.96	503.43	288.95	173.61	368.81	164.67	195.71	260.87	183.47	138.96	304.9	180.66	225.92	329.52	167.76	82.548	137.4	195.38	108.31	133.7	279.35	21.129	120.29	244.27	25.82	84.065	275.05	21.061	91.724	210.77	185.32	38.94	175.15	208.5	41.093	289.81	272.29	44.255	240.88	305.87	1504.4	296.1	266.4	1220.1	296.4
